<svg width="20" height="20" viewBox="0 0 20 20" fill="none" xmlns="http://www.w3.org/2000/svg">
<g clip-path="url(#clip0_2055_11174)">
<path d="M10 8.18359V12.0563H15.3818C15.1455 13.3018 14.4363 14.3564 13.3727 15.0654L16.6181 17.5836C18.509 15.8383 19.5999 13.2746 19.5999 10.2291C19.5999 9.52007 19.5363 8.83819 19.4181 8.1837L10 8.18359Z" fill="#4285F4"/>
<path d="M4.39519 11.9023L3.66322 12.4627L1.07227 14.4808C2.71772 17.7444 6.09019 19.999 9.99925 19.999C12.6992 19.999 14.9628 19.1081 16.6174 17.5808L13.3719 15.0626C12.481 15.6626 11.3447 16.0263 9.99925 16.0263C7.39927 16.0263 5.19024 14.2718 4.39928 11.9081L4.39519 11.9023Z" fill="#34A853"/>
<path d="M1.07265 5.51953C0.390868 6.86493 0 8.38313 0 10.0013C0 11.6194 0.390868 13.1376 1.07265 14.483C1.07265 14.4921 4.39998 11.9012 4.39998 11.9012C4.19998 11.3012 4.08177 10.6649 4.08177 10.0012C4.08177 9.33746 4.19998 8.70114 4.39998 8.10114L1.07265 5.51953Z" fill="#FBBC05"/>
<path d="M9.99946 3.98182C11.4722 3.98182 12.7813 4.49089 13.8267 5.47272L16.6903 2.60912C14.954 0.990971 12.6995 0 9.99946 0C6.0904 0 2.71772 2.24545 1.07227 5.51819L4.39949 8.10001C5.19035 5.73635 7.39947 3.98182 9.99946 3.98182Z" fill="#EA4335"/>
</g>
<defs>
<clipPath id="clip0_2055_11174">
<rect width="20" height="20" fill="white"/>
</clipPath>
</defs>
</svg>
